Arima Madurai-Bold_.ufo
<glyph name="dollar" format="1">
  <advance width="568"/>
  <unicode hex="0024"/>
  <outline>
    <contour>
      <point x="307" y="-96"/>
      <point x="314" y="-92"/>
      <point x="319" y="-88" type="curve"/>
      <point x="315" y="-72"/>
      <point x="313" y="-41"/>
      <point x="313" y="-1" type="curve" smooth="yes"/>
      <point x="311" y="761" type="line" smooth="yes"/>
      <point x="311" y="775"/>
      <point x="304" y="783"/>
      <point x="288" y="783" type="curve" smooth="yes"/>
      <point x="276" y="783"/>
      <point x="270" y="779"/>
      <point x="264" y="775" type="curve"/>
      <point x="268" y="759"/>
      <point x="270" y="728"/>
      <point x="270" y="688" type="curve" smooth="yes"/>
      <point x="272" y="-74" type="line" smooth="yes"/>
      <point x="272" y="-88"/>
      <point x="279" y="-96"/>
      <point x="295" y="-96" type="curve" smooth="yes"/>
    </contour>
    <component base="S"/>
  </outline>
</glyph>
<glyph name="hyphen" format="1">
  <advance width="399"/>
  <unicode hex="002D"/>
  <outline>
    <contour>
      <point x="35" y="219" type="line"/>
      <point x="363" y="219" type="line"/>
      <point x="363" y="298" type="line"/>
      <point x="35" y="298" type="line"/>
    </contour>
  </outline>
</glyph>
<glyph name="three" format="1">
  <advance width="566"/>
  <unicode hex="0033"/>
  <outline>
    <contour>
      <point x="425" y="-12"/>
      <point x="534" y="65"/>
      <point x="534" y="192" type="curve" smooth="yes"/>
      <point x="534" y="300"/>
      <point x="448" y="349"/>
      <point x="334" y="368" type="curve"/>
      <point x="432" y="395"/>
      <point x="506" y="461"/>
      <point x="506" y="546" type="curve" smooth="yes"/>
      <point x="506" y="681"/>
      <point x="369" y="712"/>
      <point x="274" y="712" type="curve" smooth="yes"/>
      <point x="129" y="712"/>
      <point x="55" y="653"/>
      <point x="55" y="584" type="curve" smooth="yes"/>
      <point x="55" y="564"/>
      <point x="65" y="520"/>
      <point x="156" y="521" type="curve"/>
      <point x="157" y="586"/>
      <point x="175" y="668"/>
      <point x="263" y="668" type="curve" smooth="yes"/>
      <point x="330" y="668"/>
      <point x="353" y="623"/>
      <point x="353" y="555" type="curve" smooth="yes"/>
      <point x="353" y="482"/>
      <point x="303" y="399"/>
      <point x="152" y="392" type="curve"/>
      <point x="151" y="344" type="line"/>
      <point x="268" y="343"/>
      <point x="381" y="302"/>
      <point x="381" y="179" type="curve" smooth="yes"/>
      <point x="381" y="90"/>
      <point x="329" y="31"/>
      <point x="253" y="31" type="curve" smooth="yes"/>
      <point x="133" y="31"/>
      <point x="126" y="134"/>
      <point x="122" y="181" type="curve"/>
      <point x="38" y="181"/>
      <point x="23" y="134"/>
      <point x="23" y="106" type="curve" smooth="yes"/>
      <point x="23" y="70"/>
      <point x="56" y="-12"/>
      <point x="262" y="-12" type="curve" smooth="yes"/>
    </contour>
  </outline>
</glyph>
<glyph name="seven" format="1">
  <advance width="513"/>
  <unicode hex="0037"/>
  <outline>
    <contour>
      <point x="280" y="145"/>
      <point x="353" y="448"/>
      <point x="460" y="599" type="curve" smooth="yes"/>
      <point x="485" y="630"/>
      <point x="482" y="676"/>
      <point x="474" y="698" type="curve"/>
      <point x="234" y="698" type="line" smooth="yes"/>
      <point x="169" y="698"/>
      <point x="106" y="700"/>
      <point x="38" y="706" type="curve"/>
      <point x="23" y="677"/>
      <point x="30" y="603"/>
      <point x="51" y="582" type="curve"/>
      <point x="158" y="582"/>
      <point x="257" y="579"/>
      <point x="356" y="597" type="curve"/>
      <point x="244" y="479"/>
      <point x="158" y="157"/>
      <point x="143" y="2" type="curve"/>
      <point x="188" y="-9"/>
      <point x="235" y="-9"/>
      <point x="280" y="0" type="curve"/>
    </contour>
  </outline>
</glyph>
<glyph name="nine" format="1">
  <advance width="607"/>
  <unicode hex="0039"/>
  <outline>
    <contour>
      <point x="470" y="-14"/>
      <point x="552" y="124"/>
      <point x="552" y="380" type="curve" smooth="yes"/>
      <point x="552" y="636"/>
      <point x="449" y="712"/>
      <point x="304" y="712" type="curve" smooth="yes"/>
      <point x="135" y="712"/>
      <point x="58" y="615"/>
      <point x="58" y="485" type="curve" smooth="yes"/>
      <point x="58" y="340"/>
      <point x="153" y="269"/>
      <point x="261" y="269" type="curve" smooth="yes"/>
      <point x="390" y="269"/>
      <point x="435" y="369"/>
      <point x="457" y="445" type="curve"/>
      <point x="415" y="481" type="line"/>
      <point x="403" y="375"/>
      <point x="350" y="331"/>
      <point x="290" y="331" type="curve" smooth="yes"/>
      <point x="223" y="331"/>
      <point x="203" y="386"/>
      <point x="203" y="479" type="curve" smooth="yes"/>
      <point x="203" y="575"/>
      <point x="222" y="665"/>
      <point x="298" y="665" type="curve" smooth="yes"/>
      <point x="388" y="665"/>
      <point x="399" y="534"/>
      <point x="399" y="387" type="curve" smooth="yes"/>
      <point x="399" y="193"/>
      <point x="385" y="41"/>
      <point x="270" y="41" type="curve" smooth="yes"/>
      <point x="221" y="41"/>
      <point x="175" y="69"/>
      <point x="122" y="153" type="curve"/>
      <point x="109" y="149"/>
      <point x="71" y="113"/>
      <point x="73" y="75" type="curve" smooth="yes"/>
      <point x="77" y="11"/>
      <point x="173" y="-14"/>
      <point x="262" y="-14" type="curve" smooth="yes"/>
    </contour>
  </outline>
</glyph>
<glyph name="equal" format="1">
  <advance width="541"/>
  <unicode hex="003D"/>
  <outline>
    <contour>
      <point x="62" y="451"/>
      <point x="62" y="427"/>
      <point x="71" y="403" type="curve"/>
      <point x="470" y="403" type="line"/>
      <point x="479" y="427"/>
      <point x="479" y="451"/>
      <point x="470" y="475" type="curve"/>
      <point x="71" y="475" type="line"/>
    </contour>
    <contour>
      <point x="62" y="255"/>
      <point x="62" y="231"/>
      <point x="71" y="207" type="curve"/>
      <point x="470" y="207" type="line"/>
      <point x="479" y="231"/>
      <point x="479" y="255"/>
      <point x="470" y="279" type="curve"/>
      <point x="71" y="279" type="line"/>
    </contour>
  </outline>
</glyph>
<glyph name="g" format="1">
  <advance width="547"/>
  <unicode hex="0067"/>
  <outline>
    <contour>
      <point x="382" y="-224"/>
      <point x="495" y="-155"/>
      <point x="495" y="44" type="curve" smooth="yes"/>
      <point x="495" y="465" type="line"/>
      <point x="446" y="506"/>
      <point x="367" y="531"/>
      <point x="280" y="531" type="curve" smooth="yes"/>
      <point x="100" y="531"/>
      <point x="34" y="413"/>
      <point x="34" y="249" type="curve" smooth="yes"/>
      <point x="34" y="68"/>
      <point x="107" y="2"/>
      <point x="212" y="2" type="curve" smooth="yes"/>
      <point x="287" y="2"/>
      <point x="337" y="37"/>
      <point x="360" y="100" type="curve"/>
      <point x="359" y="76"/>
      <point x="359" y="43"/>
      <point x="359" y="25" type="curve" smooth="yes"/>
      <point x="359" y="-98"/>
      <point x="317" y="-183"/>
      <point x="233" y="-183" type="curve" smooth="yes"/>
      <point x="184" y="-183"/>
      <point x="165" y="-154"/>
      <point x="165" y="-117" type="curve" smooth="yes"/>
      <point x="165" y="-91"/>
      <point x="175" y="-66"/>
      <point x="195" y="-48" type="curve"/>
      <point x="183" y="-33"/>
      <point x="161" y="-25"/>
      <point x="132" y="-25" type="curve" smooth="yes"/>
      <point x="77" y="-25"/>
      <point x="38" y="-58"/>
      <point x="38" y="-109" type="curve" smooth="yes"/>
      <point x="38" y="-192"/>
      <point x="128" y="-224"/>
      <point x="229" y="-224" type="curve" smooth="yes"/>
    </contour>
    <contour>
      <point x="197" y="65"/>
      <point x="180" y="109"/>
      <point x="180" y="235" type="curve" smooth="yes"/>
      <point x="180" y="393"/>
      <point x="201" y="485"/>
      <point x="288" y="485" type="curve" smooth="yes"/>
      <point x="315" y="485"/>
      <point x="342" y="477"/>
      <point x="359" y="464" type="curve"/>
      <point x="358" y="249" type="line" smooth="yes"/>
      <point x="357" y="133"/>
      <point x="322" y="65"/>
      <point x="254" y="65" type="curve" smooth="yes"/>
    </contour>
    <contour>
      <point x="286" y="522" type="move" name="top"/>
    </contour>
    <contour>
      <point x="274" y="0" type="move" name="bottom"/>
    </contour>
  </outline>
</glyph>
<glyph name="u" format="1">
  <advance width="584"/>
  <unicode hex="0075"/>
  <outline>
    <contour>
      <point x="387" y="531"/>
      <point x="359" y="512"/>
      <point x="347" y="502" type="curve"/>
      <point x="370" y="447"/>
      <point x="370" y="411"/>
      <point x="370" y="282" type="curve" smooth="yes"/>
      <point x="370" y="126"/>
      <point x="330" y="48"/>
      <point x="270" y="48" type="curve" smooth="yes"/>
      <point x="215" y="48"/>
      <point x="203" y="103"/>
      <point x="203" y="208" type="curve" smooth="yes"/>
      <point x="203" y="460" type="line" smooth="yes"/>
      <point x="203" y="505"/>
      <point x="169" y="531"/>
      <point x="124" y="531" type="curve" smooth="yes"/>
      <point x="88" y="531"/>
      <point x="63" y="516"/>
      <point x="45" y="501" type="curve"/>
      <point x="62" y="456"/>
      <point x="65" y="400"/>
      <point x="65" y="370" type="curve" smooth="yes"/>
      <point x="65" y="186" type="line" smooth="yes"/>
      <point x="65" y="40"/>
      <point x="116" y="-15"/>
      <point x="223" y="-15" type="curve" smooth="yes"/>
      <point x="333" y="-15"/>
      <point x="387" y="56"/>
      <point x="403" y="176" type="curve"/>
      <point x="386" y="146" type="line"/>
      <point x="386" y="115" type="line" smooth="yes"/>
      <point x="386" y="28"/>
      <point x="426" y="-14"/>
      <point x="489" y="-14" type="curve" smooth="yes"/>
      <point x="542" y="-14"/>
      <point x="571" y="15"/>
      <point x="571" y="57" type="curve" smooth="yes"/>
      <point x="571" y="72"/>
      <point x="567" y="85"/>
      <point x="558" y="99" type="curve"/>
      <point x="551" y="90"/>
      <point x="539" y="88"/>
      <point x="532" y="88" type="curve" smooth="yes"/>
      <point x="515" y="88"/>
      <point x="506" y="102"/>
      <point x="506" y="140" type="curve" smooth="yes"/>
      <point x="505" y="453" type="line" smooth="yes"/>
      <point x="505" y="502"/>
      <point x="470" y="531"/>
      <point x="426" y="531" type="curve" smooth="yes"/>
    </contour>
    <contour>
      <point x="476" y="-21" type="move" name="ogonek"/>
    </contour>
    <contour>
      <point x="273" y="516" type="move" name="top"/>
    </contour>
    <contour>
      <point x="488" y="501" type="move" name="topright"/>
    </contour>
    <contour>
      <point x="294" y="0" type="move" name="bottom"/>
    </contour>
  </outline>
</glyph>
<glyph name="v" format="1">
  <advance width="514"/>
  <unicode hex="0076"/>
  <outline>
    <contour>
      <point x="276" y="-15"/>
      <point x="306" y="-8"/>
      <point x="337" y="5" type="curve"/>
      <point x="486" y="401" type="line" smooth="yes"/>
      <point x="497" y="427"/>
      <point x="500" y="454"/>
      <point x="500" y="472" type="curve" smooth="yes"/>
      <point x="500" y="513"/>
      <point x="478" y="530"/>
      <point x="425" y="530" type="curve" smooth="yes"/>
      <point x="392" y="530"/>
      <point x="373" y="523"/>
      <point x="354" y="515" type="curve"/>
      <point x="360" y="508"/>
      <point x="363" y="498"/>
      <point x="363" y="482" type="curve" smooth="yes"/>
      <point x="363" y="466"/>
      <point x="360" y="452"/>
      <point x="357" y="436" type="curve" smooth="yes"/>
      <point x="262" y="41" type="line"/>
      <point x="277" y="39" type="line"/>
      <point x="167" y="476" type="line" smooth="yes"/>
      <point x="159" y="512"/>
      <point x="128" y="530"/>
      <point x="86" y="530" type="curve" smooth="yes"/>
      <point x="43" y="530"/>
      <point x="20" y="513"/>
      <point x="8" y="499" type="curve"/>
      <point x="25" y="481"/>
      <point x="34" y="450"/>
      <point x="40" y="434" type="curve" smooth="yes"/>
      <point x="173" y="30" type="line" smooth="yes"/>
      <point x="184" y="-4"/>
      <point x="213" y="-15"/>
      <point x="245" y="-15" type="curve" smooth="yes"/>
    </contour>
    <contour>
      <point x="257" y="516" type="move" name="top"/>
    </contour>
    <contour>
      <point x="257" y="0" type="move" name="bottom"/>
    </contour>
  </outline>
</glyph>
<glyph name="cent" format="1">
  <advance width="518"/>
  <unicode hex="00A2"/>
  <outline>
    <contour>
      <point x="440" y="-61"/>
      <point x="444" y="-56"/>
      <point x="448" y="-50" type="curve"/>
      <point x="440" y="-36"/>
      <point x="428" y="-7"/>
      <point x="416" y="31" type="curve" smooth="yes"/>
      <point x="178" y="739" type="line" smooth="yes"/>
      <point x="173" y="752"/>
      <point x="164" y="757"/>
      <point x="149" y="752" type="curve" smooth="yes"/>
      <point x="137" y="748"/>
      <point x="134" y="743"/>
      <point x="129" y="737" type="curve"/>
      <point x="137" y="723"/>
      <point x="149" y="694"/>
      <point x="162" y="656" type="curve" smooth="yes"/>
      <point x="400" y="-52" type="line" smooth="yes"/>
      <point x="404" y="-65"/>
      <point x="413" y="-70"/>
      <point x="428" y="-65" type="curve" smooth="yes"/>
    </contour>
    <component base="c" xOffset="1" yOffset="95"/>
  </outline>
</glyph>
<glyph name="yen" format="1">
  <advance width="599"/>
  <unicode hex="00A5"/>
  <outline>
    <contour>
      <point x="92" y="188"/>
      <point x="126" y="190"/>
      <point x="139" y="190" type="curve" smooth="yes"/>
      <point x="479" y="190" type="line" smooth="yes"/>
      <point x="498" y="190"/>
      <point x="514" y="201"/>
      <point x="515" y="223" type="curve" smooth="yes"/>
      <point x="516" y="255" type="line"/>
      <point x="506" y="253"/>
      <point x="353" y="251"/>
      <point x="343" y="251" type="curve" smooth="yes"/>
      <point x="116" y="251" type="line" smooth="yes"/>
      <point x="97" y="251"/>
      <point x="81" y="240"/>
      <point x="80" y="218" type="curve" smooth="yes"/>
      <point x="79" y="186" type="line"/>
    </contour>
    <contour>
      <point x="92" y="266"/>
      <point x="126" y="268"/>
      <point x="139" y="268" type="curve" smooth="yes"/>
      <point x="479" y="268" type="line" smooth="yes"/>
      <point x="498" y="268"/>
      <point x="514" y="279"/>
      <point x="515" y="301" type="curve" smooth="yes"/>
      <point x="516" y="333" type="line"/>
      <point x="506" y="331"/>
      <point x="353" y="330"/>
      <point x="343" y="330" type="curve" smooth="yes"/>
      <point x="116" y="330" type="line" smooth="yes"/>
      <point x="97" y="330"/>
      <point x="81" y="319"/>
      <point x="80" y="297" type="curve" smooth="yes"/>
      <point x="79" y="265" type="line"/>
    </contour>
    <component base="Y"/>
  </outline>
</glyph>
<glyph name="AE" format="1">
  <advance width="875"/>
  <unicode hex="00C6"/>
  <outline>
    <contour>
      <point x="135" y="-14"/>
      <point x="155" y="-7"/>
      <point x="175" y="1" type="curve"/>
      <point x="169" y="8"/>
      <point x="165" y="18"/>
      <point x="165" y="34" type="curve" smooth="yes"/>
      <point x="165" y="49"/>
      <point x="165" y="64"/>
      <point x="172" y="80" type="curve"/>
      <point x="399" y="603" type="line"/>
      <point x="404" y="577"/>
      <point x="404" y="554"/>
      <point x="404" y="533" type="curve" smooth="yes"/>
      <point x="405" y="71" type="line" smooth="yes"/>
      <point x="405" y="26"/>
      <point x="439" y="0"/>
      <point x="484" y="0" type="curve" smooth="yes"/>
      <point x="802" y="0" type="line" smooth="yes"/>
      <point x="847" y="0"/>
      <point x="845" y="103"/>
      <point x="810" y="125" type="curve"/>
      <point x="757" y="98"/>
      <point x="633" y="69"/>
      <point x="544" y="66" type="curve"/>
      <point x="544" y="632" type="line"/>
      <point x="629" y="629"/>
      <point x="717" y="608"/>
      <point x="785" y="576" type="curve"/>
      <point x="822" y="593"/>
      <point x="838" y="698"/>
      <point x="800" y="698" type="curve" smooth="yes"/>
      <point x="518" y="698" type="line"/>
      <point x="466" y="698"/>
      <point x="372" y="688"/>
      <point x="328" y="675" type="curve"/>
      <point x="36" y="115" type="line" smooth="yes"/>
      <point x="23" y="90"/>
      <point x="17" y="71"/>
      <point x="17" y="53" type="curve"/>
      <point x="17" y="12"/>
      <point x="46" y="-14"/>
      <point x="100" y="-14" type="curve" smooth="yes"/>
    </contour>
    <contour>
      <point x="529" y="203" type="line"/>
      <point x="529" y="277" type="line"/>
      <point x="210" y="277" type="line"/>
      <point x="210" y="203" type="line"/>
    </contour>
    <contour>
      <point x="755" y="324" type="line"/>
      <point x="760" y="345"/>
      <point x="762" y="373"/>
      <point x="755" y="398" type="curve"/>
      <point x="518" y="398" type="line"/>
      <point x="518" y="324" type="line"/>
    </contour>
    <contour>
      <point x="296" y="-13" type="move" name="ogonek"/>
    </contour>
    <contour>
      <point x="47" y="698" type="move" name="top"/>
    </contour>
    <contour>
      <point x="370" y="698" type="move" name="topleft"/>
    </contour>
    <contour>
      <point x="47" y="0" type="move" name="bottom"/>
    </contour>
  </outline>
</glyph>
<glyph name="Eth" format="1">
  <advance width="658"/>
  <unicode hex="00D0"/>
  <outline>
    <contour>
      <point x="15" y="358"/>
      <point x="15" y="342"/>
      <point x="21" y="324" type="curve"/>
      <point x="341" y="324" type="line"/>
      <point x="346" y="342"/>
      <point x="346" y="358"/>
      <point x="341" y="375" type="curve"/>
      <point x="21" y="375" type="line"/>
    </contour>
    <component base="D"/>
  </outline>
</glyph>
<glyph name="Oslash" format="1">
  <advance width="662"/>
  <unicode hex="00D8"/>
  <outline>
    <contour>
      <point x="92" y="-7"/>
      <point x="106" y="-15"/>
      <point x="125" y="-15" type="curve"/>
      <point x="558" y="706" type="line"/>
      <point x="549" y="723"/>
      <point x="535" y="732"/>
      <point x="515" y="731" type="curve"/>
      <point x="82" y="10" type="line"/>
    </contour>
    <component base="O"/>
    <contour>
      <point x="331" y="698" type="move" name="top"/>
    </contour>
    <contour>
      <point x="331" y="0" type="move" name="bottom"/>
    </contour>
  </outline>
</glyph>
<glyph name="germandbls" format="1">
  <advance width="617"/>
  <unicode hex="00DF"/>
  <outline>
    <contour>
      <point x="180" y="-11"/>
      <point x="214" y="10"/>
      <point x="225" y="19" type="curve"/>
      <point x="199" y="79"/>
      <point x="201" y="86"/>
      <point x="201" y="429" type="curve" smooth="yes"/>
      <point x="201" y="553"/>
      <point x="201" y="688"/>
      <point x="328" y="688" type="curve" smooth="yes"/>
      <point x="404" y="688"/>
      <point x="437" y="638"/>
      <point x="437" y="593" type="curve" smooth="yes"/>
      <point x="437" y="498"/>
      <point x="281" y="475"/>
      <point x="281" y="344" type="curve" smooth="yes"/>
      <point x="281" y="269"/>
      <point x="332" y="242"/>
      <point x="384" y="211" type="curve" smooth="yes"/>
      <point x="419" y="190"/>
      <point x="452" y="168"/>
      <point x="452" y="118" type="curve" smooth="yes"/>
      <point x="452" y="79"/>
      <point x="430" y="47"/>
      <point x="387" y="47" type="curve" smooth="yes"/>
      <point x="345" y="47"/>
      <point x="322" y="78"/>
      <point x="322" y="123" type="curve" smooth="yes"/>
      <point x="322" y="134"/>
      <point x="323" y="146"/>
      <point x="325" y="157" type="curve"/>
      <point x="319" y="158"/>
      <point x="313" y="159"/>
      <point x="305" y="158" type="curve" smooth="yes"/>
      <point x="258" y="158"/>
      <point x="252" y="114"/>
      <point x="252" y="92" type="curve" smooth="yes"/>
      <point x="252" y="31"/>
      <point x="298" y="-12"/>
      <point x="400" y="-12" type="curve" smooth="yes"/>
      <point x="538" y="-12"/>
      <point x="594" y="66"/>
      <point x="594" y="149" type="curve" smooth="yes"/>
      <point x="594" y="224"/>
      <point x="548" y="262"/>
      <point x="502" y="293" type="curve" smooth="yes"/>
      <point x="458" y="323"/>
      <point x="415" y="344"/>
      <point x="415" y="381" type="curve" smooth="yes"/>
      <point x="415" y="438"/>
      <point x="518" y="475"/>
      <point x="518" y="584" type="curve" smooth="yes"/>
      <point x="518" y="667"/>
      <point x="458" y="733"/>
      <point x="325" y="733" type="curve" smooth="yes"/>
      <point x="158" y="733"/>
      <point x="63" y="628"/>
      <point x="65" y="399" type="curve" smooth="yes"/>
      <point x="66" y="67" type="line" smooth="yes"/>
      <point x="66" y="17"/>
      <point x="104" y="-11"/>
      <point x="144" y="-11" type="curve" smooth="yes"/>
    </contour>
    <contour>
      <point x="295" y="516" type="move" name="top"/>
    </contour>
    <contour>
      <point x="295" y="0" type="move" name="bottom"/>
    </contour>
  </outline>
</glyph>
<glyph name="oslash" format="1">
  <advance width="562"/>
  <unicode hex="00F8"/>
  <outline>
    <contour>
      <point x="99" y="-16"/>
      <point x="114" y="-24"/>
      <point x="135" y="-25" type="curve"/>
      <point x="471" y="503" type="line"/>
      <point x="461" y="519"/>
      <point x="446" y="528"/>
      <point x="427" y="528" type="curve"/>
      <point x="91" y="1" type="line"/>
    </contour>
    <component base="o"/>
    <contour>
      <point x="281" y="516" type="move" name="top"/>
    </contour>
  </outline>
</glyph>
<glyph name="thorn" format="1">
  <advance width="570"/>
  <unicode hex="00FE"/>
  <outline>
    <contour>
      <point x="183" y="-216"/>
      <point x="211" y="-197"/>
      <point x="223" y="-186" type="curve"/>
      <point x="204" y="-120"/>
      <point x="201" y="-41"/>
      <point x="201" y="4" type="curve" smooth="yes"/>
      <point x="201" y="44" type="line"/>
      <point x="220" y="6"/>
      <point x="262" y="-14"/>
      <point x="320" y="-14" type="curve" smooth="yes"/>
      <point x="452" y="-14"/>
      <point x="536" y="86"/>
      <point x="536" y="277" type="curve" smooth="yes"/>
      <point x="536" y="416"/>
      <point x="489" y="531"/>
      <point x="356" y="531" type="curve" smooth="yes"/>
      <point x="254" y="531"/>
      <point x="190" y="460"/>
      <point x="172" y="307" type="curve"/>
      <point x="196" y="297" type="line"/>
      <point x="196" y="458" type="line" smooth="yes"/>
      <point x="197" y="558"/>
      <point x="200" y="637"/>
      <point x="220" y="703" type="curve"/>
      <point x="207" y="713"/>
      <point x="169" y="736"/>
      <point x="126" y="732" type="curve" smooth="yes"/>
      <point x="89" y="729"/>
      <point x="65" y="707"/>
      <point x="65" y="662" type="curve" smooth="yes"/>
      <point x="65" y="-146" type="line" smooth="yes"/>
      <point x="65" y="-190"/>
      <point x="99" y="-216"/>
      <point x="144" y="-216" type="curve" smooth="yes"/>
    </contour>
    <contour>
      <point x="224" y="56"/>
      <point x="202" y="104"/>
      <point x="202" y="207" type="curve" smooth="yes"/>
      <point x="202" y="325"/>
      <point x="235" y="458"/>
      <point x="314" y="458" type="curve" smooth="yes"/>
      <point x="374" y="458"/>
      <point x="389" y="390"/>
      <point x="389" y="278" type="curve" smooth="yes"/>
      <point x="389" y="137"/>
      <point x="360" y="56"/>
      <point x="284" y="56" type="curve" smooth="yes"/>
    </contour>
    <contour>
      <point x="284" y="516" type="move" name="top"/>
    </contour>
    <contour>
      <point x="284" y="0" type="move" name="bottom"/>
    </contour>
  </outline>
</glyph>
<glyph name="eogonek" format="1">
  <advance width="527"/>
  <unicode hex="0119"/>
  <outline>
    <component base="e"/>
    <component base="ogonekcomb" xOffset="53" yOffset="3"/>
    <contour>
      <point x="300" y="516" type="move" name="top"/>
    </contour>
  </outline>
</glyph>
<glyph name="dotlessi" format="1">
  <advance width="274"/>
  <unicode hex="0131"/>
  <outline>
    <contour>
      <point x="208" y="461" type="line" smooth="yes"/>
      <point x="208" y="506"/>
      <point x="175" y="532"/>
      <point x="130" y="532" type="curve" smooth="yes"/>
      <point x="92" y="532"/>
      <point x="65" y="512"/>
      <point x="53" y="502" type="curve"/>
      <point x="70" y="457"/>
      <point x="73" y="409"/>
      <point x="73" y="371" type="curve" smooth="yes"/>
      <point x="73" y="56" type="line" smooth="yes"/>
      <point x="73" y="12"/>
      <point x="107" y="-15"/>
      <point x="150" y="-15" type="curve" smooth="yes"/>
      <point x="189" y="-15"/>
      <point x="217" y="5"/>
      <point x="229" y="16" type="curve"/>
      <point x="211" y="60"/>
      <point x="209" y="108"/>
      <point x="209" y="146" type="curve" smooth="yes"/>
    </contour>
    <contour>
      <point x="179" y="10" type="move" name="ogonek"/>
    </contour>
    <contour>
      <point x="151" y="0" type="move" name="bottom"/>
    </contour>
    <contour>
      <point x="129" y="516" type="move" name="top"/>
    </contour>
  </outline>
</glyph>
<glyph name="lcaron" format="1">
  <advance width="396"/>
  <unicode hex="013E"/>
  <outline>
    <contour>
      <point x="297" y="770"/>
      <point x="348" y="770"/>
      <point x="382" y="758" type="curve"/>
      <point x="382" y="691"/>
      <point x="360" y="619"/>
      <point x="335" y="569" type="curve"/>
      <point x="277" y="569" type="line"/>
      <point x="283" y="621"/>
      <point x="281" y="699"/>
      <point x="259" y="758" type="curve"/>
    </contour>
    <component base="l"/>
  </outline>
</glyph>
<glyph name="oe" format="1">
  <advance width="873"/>
  <unicode hex="0153"/>
  <outline>
    <contour>
      <point x="357" y="-14"/>
      <point x="421" y="18"/>
      <point x="457" y="68" type="curve"/>
      <point x="491" y="18"/>
      <point x="560" y="-14"/>
      <point x="636" y="-14" type="curve" smooth="yes"/>
      <point x="731" y="-14"/>
      <point x="800" y="23"/>
      <point x="827" y="88" type="curve" smooth="yes"/>
      <point x="842" y="125"/>
      <point x="832" y="140"/>
      <point x="818" y="146" type="curve"/>
      <point x="796" y="104"/>
      <point x="749" y="71"/>
      <point x="674" y="71" type="curve" smooth="yes"/>
      <point x="592" y="71"/>
      <point x="539" y="112"/>
      <point x="529" y="230" type="curve"/>
      <point x="564" y="227"/>
      <point x="596" y="226"/>
      <point x="627" y="226" type="curve" smooth="yes"/>
      <point x="755" y="226"/>
      <point x="842" y="280"/>
      <point x="842" y="379" type="curve" smooth="yes"/>
      <point x="842" y="480"/>
      <point x="752" y="531"/>
      <point x="637" y="531" type="curve" smooth="yes"/>
      <point x="557" y="531"/>
      <point x="488" y="496"/>
      <point x="455" y="448" type="curve"/>
      <point x="420" y="498"/>
      <point x="355" y="531"/>
      <point x="281" y="531" type="curve" smooth="yes"/>
      <point x="125" y="531"/>
      <point x="34" y="430"/>
      <point x="34" y="258" type="curve" smooth="yes"/>
      <point x="34" y="87"/>
      <point x="125" y="-14"/>
      <point x="281" y="-14" type="curve" smooth="yes"/>
    </contour>
    <contour>
      <point x="212" y="32"/>
      <point x="181" y="108"/>
      <point x="181" y="258" type="curve" smooth="yes"/>
      <point x="181" y="409"/>
      <point x="212" y="485"/>
      <point x="281" y="485" type="curve" smooth="yes"/>
      <point x="349" y="485"/>
      <point x="380" y="409"/>
      <point x="380" y="258" type="curve" smooth="yes"/>
      <point x="380" y="108"/>
      <point x="349" y="32"/>
      <point x="281" y="32" type="curve" smooth="yes"/>
    </contour>
    <contour>
      <point x="525" y="397"/>
      <point x="567" y="485"/>
      <point x="633" y="485" type="curve" smooth="yes"/>
      <point x="664" y="485"/>
      <point x="696" y="469"/>
      <point x="696" y="402" type="curve" smooth="yes"/>
      <point x="696" y="312"/>
      <point x="633" y="276"/>
      <point x="562" y="276" type="curve" smooth="yes"/>
      <point x="551" y="276"/>
      <point x="542" y="277"/>
      <point x="529" y="278" type="curve"/>
    </contour>
    <contour>
      <point x="85" y="0" type="move" name="bottom"/>
    </contour>
    <contour>
      <point x="314" y="10" type="move" name="ogonek"/>
    </contour>
    <contour>
      <point x="85" y="516" type="move" name="top"/>
    </contour>
    <contour>
      <point x="258" y="461" type="move" name="topright"/>
    </contour>
    <contour>
      <point x="89" y="258" type="move" name="center"/>
    </contour>
  </outline>
</glyph>
<glyph name="Uhorn" format="1">
  <advance width="676"/>
  <unicode hex="01AF"/>
  <outline>
    <component base="U"/>
    <component base="horncomb" xOffset="336" yOffset="181"/>
    <contour>
      <point x="342" y="698" type="move" name="top"/>
    </contour>
    <contour>
      <point x="347" y="0" type="move" name="bottom"/>
    </contour>
  </outline>
</glyph>
<glyph name="ascript" format="1">
  <advance width="592"/>
  <unicode hex="0251"/>
  <outline>
    <contour>
      <point x="315" y="-14"/>
      <point x="379" y="57"/>
      <point x="397" y="209" type="curve"/>
      <point x="376" y="220" type="line"/>
      <point x="376" y="174" type="line" smooth="yes"/>
      <point x="376" y="59"/>
      <point x="409" y="-14"/>
      <point x="487" y="-14" type="curve" smooth="yes"/>
      <point x="537" y="-14"/>
      <point x="576" y="15"/>
      <point x="576" y="56" type="curve" smooth="yes"/>
      <point x="576" y="68"/>
      <point x="572" y="85"/>
      <point x="563" y="99" type="curve"/>
      <point x="557" y="90"/>
      <point x="544" y="88"/>
      <point x="537" y="88" type="curve" smooth="yes"/>
      <point x="515" y="88"/>
      <point x="503" y="105"/>
      <point x="503" y="140" type="curve" smooth="yes"/>
      <point x="504" y="460" type="line" smooth="yes"/>
      <point x="504" y="504"/>
      <point x="471" y="531"/>
      <point x="422" y="531" type="curve" smooth="yes"/>
      <point x="406" y="531"/>
      <point x="390" y="528"/>
      <point x="378" y="517" type="curve"/>
      <point x="376" y="501"/>
      <point x="373" y="487"/>
      <point x="369" y="473" type="curve"/>
      <point x="349" y="505"/>
      <point x="309" y="530"/>
      <point x="249" y="530" type="curve" smooth="yes"/>
      <point x="111" y="530"/>
      <point x="34" y="426"/>
      <point x="34" y="240" type="curve" smooth="yes"/>
      <point x="34" y="92"/>
      <point x="85" y="-14"/>
      <point x="212" y="-14" type="curve" smooth="yes"/>
    </contour>
    <contour>
      <point x="199" y="60"/>
      <point x="181" y="120"/>
      <point x="181" y="243" type="curve" smooth="yes"/>
      <point x="181" y="381"/>
      <point x="207" y="462"/>
      <point x="284" y="462" type="curve" smooth="yes"/>
      <point x="356" y="462"/>
      <point x="366" y="394"/>
      <point x="366" y="323" type="curve" smooth="yes"/>
      <point x="366" y="193"/>
      <point x="333" y="60"/>
      <point x="254" y="60" type="curve" smooth="yes"/>
    </contour>
    <contour>
      <point x="294" y="516" type="move" name="top"/>
    </contour>
    <contour>
      <point x="294" y="0" type="move" name="bottom"/>
    </contour>
  </outline>
</glyph>
<glyph name="tonos" format="1">
  <advance width="195"/>
  <unicode hex="0384"/>
  <outline>
    <contour>
      <point x="154" y="755"/>
      <point x="86" y="772"/>
      <point x="54" y="759" type="curve"/>
      <point x="32" y="585" type="line"/>
      <point x="45" y="571"/>
      <point x="68" y="565"/>
      <point x="84" y="566" type="curve"/>
      <point x="167" y="720" type="line"/>
    </contour>
    <contour>
      <point x="91" y="683" type="move" name="top"/>
    </contour>
    <contour>
      <point x="47" y="520" type="move" name="_top"/>
    </contour>
  </outline>
</glyph>
<glyph name="Gamma" format="1">
  <advance width="554"/>
  <unicode hex="0393"/>
  <outline>
    <contour>
      <point x="222" y="632" type="line"/>
      <point x="328" y="629"/>
      <point x="414" y="608"/>
      <point x="483" y="576" type="curve"/>
      <point x="520" y="593"/>
      <point x="536" y="698"/>
      <point x="498" y="698" type="curve"/>
      <point x="190" y="698" type="line" smooth="yes"/>
      <point x="127" y="698"/>
      <point x="98" y="693"/>
      <point x="63" y="663" type="curve"/>
      <point x="80" y="618"/>
      <point x="83" y="572"/>
      <point x="83" y="533" type="curve" smooth="yes"/>
      <point x="83" y="57" type="line" smooth="yes"/>
      <point x="83" y="13"/>
      <point x="117" y="-14"/>
      <point x="163" y="-14" type="curve" smooth="yes"/>
      <point x="202" y="-14"/>
      <point x="231" y="6"/>
      <point x="243" y="17" type="curve"/>
      <point x="225" y="61"/>
      <point x="223" y="108"/>
      <point x="223" y="146" type="curve" smooth="yes"/>
    </contour>
    <contour>
      <point x="423" y="-10" type="move" name="ogonek"/>
    </contour>
    <contour>
      <point x="280" y="698" type="move" name="top"/>
    </contour>
    <contour>
      <point x="20" y="700" type="move" name="topleft"/>
    </contour>
    <contour>
      <point x="278" y="0" type="move" name="bottom"/>
    </contour>
  </outline>
</glyph>
<glyph name="Epsilon" format="1">
  <advance width="554"/>
  <unicode hex="0395"/>
  <outline>
    <component base="E"/>
    <contour>
      <point x="69" y="700" type="move" name="topleft"/>
    </contour>
  </outline>
</glyph>
<glyph name="eta" format="1">
  <advance width="588"/>
  <unicode hex="03B7"/>
  <outline>
    <contour>
      <point x="527" y="331" type="line" smooth="yes"/>
      <point x="527" y="464"/>
      <point x="476" y="531"/>
      <point x="366" y="531" type="curve" smooth="yes"/>
      <point x="254" y="531"/>
      <point x="199" y="460"/>
      <point x="183" y="340" type="curve"/>
      <point x="200" y="371" type="line"/>
      <point x="200" y="401" type="line" smooth="yes"/>
      <point x="200" y="489"/>
      <point x="159" y="531"/>
      <point x="97" y="531" type="curve" smooth="yes"/>
      <point x="44" y="531"/>
      <point x="15" y="501"/>
      <point x="15" y="460" type="curve" smooth="yes"/>
      <point x="15" y="444"/>
      <point x="19" y="431"/>
      <point x="28" y="417" type="curve"/>
      <point x="34" y="427"/>
      <point x="47" y="429"/>
      <point x="54" y="429" type="curve" smooth="yes"/>
      <point x="71" y="429"/>
      <point x="80" y="414"/>
      <point x="80" y="376" type="curve" smooth="yes"/>
      <point x="80" y="64" type="line" smooth="yes"/>
      <point x="80" y="16"/>
      <point x="114" y="-14"/>
      <point x="161" y="-14" type="curve" smooth="yes"/>
      <point x="198" y="-14"/>
      <point x="227" y="5"/>
      <point x="239" y="16" type="curve"/>
      <point x="216" y="70"/>
      <point x="216" y="107"/>
      <point x="216" y="235" type="curve" smooth="yes"/>
      <point x="216" y="387"/>
      <point x="258" y="463"/>
      <point x="319" y="463" type="curve" smooth="yes"/>
      <point x="377" y="463"/>
      <point x="390" y="406"/>
      <point x="390" y="309" type="curve" smooth="yes"/>
      <point x="390" y="-63" type="line" smooth="yes"/>
      <point x="390" y="-93"/>
      <point x="387" y="-149"/>
      <point x="369" y="-193" type="curve"/>
      <point x="388" y="-210"/>
      <point x="414" y="-224"/>
      <point x="448" y="-224" type="curve" smooth="yes"/>
      <point x="493" y="-224"/>
      <point x="527" y="-197"/>
      <point x="527" y="-153" type="curve" smooth="yes"/>
    </contour>
    <contour>
      <point x="336" y="520" type="move" name="top"/>
    </contour>
    <contour>
      <point x="312" y="0" type="move" name="bottom"/>
    </contour>
  </outline>
</glyph>
<glyph name="acircumflexacute" format="1">
  <advance width="568"/>
  <unicode hex="1EA5"/>
  <outline>
    <contour>
      <point x="269" y="636" type="line"/>
      <point x="386" y="555" type="line"/>
      <point x="397" y="555"/>
      <point x="420" y="565"/>
      <point x="421" y="570" type="curve"/>
      <point x="303" y="715" type="line"/>
      <point x="291" y="721"/>
      <point x="246" y="720"/>
      <point x="234" y="715" type="curve"/>
      <point x="116" y="570" type="line"/>
      <point x="117" y="565"/>
      <point x="139" y="555"/>
      <point x="150" y="555" type="curve"/>
    </contour>
    <contour>
      <point x="557" y="787" type="line"/>
      <point x="547" y="797"/>
      <point x="492" y="817"/>
      <point x="462" y="811" type="curve"/>
      <point x="379" y="671" type="line"/>
      <point x="387" y="666"/>
      <point x="411" y="663"/>
      <point x="427" y="662" type="curve"/>
    </contour>
    <component base="a"/>
    <contour>
      <point x="267" y="690" type="move" name="top"/>
    </contour>
    <contour>
      <point x="273" y="516" type="move" name="_top"/>
    </contour>
  </outline>
</glyph>
<glyph name="zerowidthnonjoiner" format="1">
  <advance width="0"/>
  <unicode hex="200C"/>
  <outline>
    <contour>
      <point x="22" y="-101" type="line"/>
      <point x="22" y="698" type="line"/>
      <point x="-21" y="698" type="line"/>
      <point x="-21" y="-101" type="line"/>
    </contour>
  </outline>
</glyph>
<glyph name="endash" format="1">
  <advance width="514"/>
  <unicode hex="2013"/>
  <outline>
    <contour>
      <point x="34" y="219" type="line"/>
      <point x="481" y="219" type="line"/>
      <point x="481" y="298" type="line"/>
      <point x="34" y="298" type="line"/>
    </contour>
  </outline>
</glyph>
<glyph name="perthousand" format="1">
  <advance width="1564"/>
  <unicode hex="2030"/>
  <outline>
    <contour>
      <point x="377" y="314"/>
      <point x="444" y="383"/>
      <point x="444" y="514" type="curve" smooth="yes"/>
      <point x="444" y="644"/>
      <point x="377" y="712"/>
      <point x="243" y="712" type="curve" smooth="yes"/>
      <point x="110" y="712"/>
      <point x="42" y="644"/>
      <point x="42" y="514" type="curve" smooth="yes"/>
      <point x="42" y="383"/>
      <point x="110" y="314"/>
      <point x="243" y="314" type="curve" smooth="yes"/>
    </contour>
    <contour>
      <point x="190" y="352"/>
      <point x="169" y="400"/>
      <point x="169" y="514" type="curve" smooth="yes"/>
      <point x="169" y="627"/>
      <point x="190" y="674"/>
      <point x="244" y="674" type="curve" smooth="yes"/>
      <point x="296" y="674"/>
      <point x="318" y="627"/>
      <point x="318" y="514" type="curve" smooth="yes"/>
      <point x="318" y="400"/>
      <point x="296" y="352"/>
      <point x="244" y="352" type="curve" smooth="yes"/>
    </contour>
    <contour>
      <point x="355" y="9" type="line"/>
      <point x="377" y="-12"/>
      <point x="404" y="-19"/>
      <point x="433" y="-14" type="curve"/>
      <point x="752" y="684" type="line"/>
      <point x="734" y="710"/>
      <point x="700" y="716"/>
      <point x="671" y="712" type="curve"/>
    </contour>
    <contour>
      <point x="999" y="-10"/>
      <point x="1066" y="58"/>
      <point x="1066" y="189" type="curve" smooth="yes"/>
      <point x="1066" y="319"/>
      <point x="999" y="388"/>
      <point x="865" y="388" type="curve" smooth="yes"/>
      <point x="732" y="388"/>
      <point x="664" y="319"/>
      <point x="664" y="189" type="curve" smooth="yes"/>
      <point x="664" y="58"/>
      <point x="732" y="-10"/>
      <point x="865" y="-10" type="curve" smooth="yes"/>
    </contour>
    <contour>
      <point x="812" y="28"/>
      <point x="791" y="75"/>
      <point x="791" y="189" type="curve" smooth="yes"/>
      <point x="791" y="302"/>
      <point x="812" y="349"/>
      <point x="866" y="349" type="curve" smooth="yes"/>
      <point x="918" y="349"/>
      <point x="940" y="302"/>
      <point x="940" y="189" type="curve" smooth="yes"/>
      <point x="940" y="75"/>
      <point x="918" y="28"/>
      <point x="866" y="28" type="curve" smooth="yes"/>
    </contour>
    <contour>
      <point x="1455" y="-10"/>
      <point x="1522" y="58"/>
      <point x="1522" y="189" type="curve" smooth="yes"/>
      <point x="1522" y="319"/>
      <point x="1455" y="388"/>
      <point x="1321" y="388" type="curve" smooth="yes"/>
      <point x="1188" y="388"/>
      <point x="1120" y="319"/>
      <point x="1120" y="189" type="curve" smooth="yes"/>
      <point x="1120" y="58"/>
      <point x="1188" y="-10"/>
      <point x="1321" y="-10" type="curve" smooth="yes"/>
    </contour>
    <contour>
      <point x="1268" y="28"/>
      <point x="1247" y="75"/>
      <point x="1247" y="189" type="curve" smooth="yes"/>
      <point x="1247" y="302"/>
      <point x="1268" y="349"/>
      <point x="1322" y="349" type="curve" smooth="yes"/>
      <point x="1374" y="349"/>
      <point x="1396" y="302"/>
      <point x="1396" y="189" type="curve" smooth="yes"/>
      <point x="1396" y="75"/>
      <point x="1374" y="28"/>
      <point x="1322" y="28" type="curve" smooth="yes"/>
    </contour>
  </outline>
</glyph>
<glyph name="eightinferior" format="1">
  <advance width="476"/>
  <unicode hex="2088"/>
  <outline>
    <contour>
      <point x="111" y="235"/>
      <point x="53" y="169"/>
      <point x="53" y="111" type="curve" smooth="yes"/>
      <point x="53" y="56"/>
      <point x="98" y="-10"/>
      <point x="250" y="-10" type="curve" smooth="yes"/>
      <point x="400" y="-10"/>
      <point x="449" y="55"/>
      <point x="449" y="110" type="curve" smooth="yes"/>
      <point x="449" y="200"/>
      <point x="327" y="255"/>
      <point x="273" y="274" type="curve" smooth="yes"/>
      <point x="236" y="286"/>
      <point x="192" y="313"/>
      <point x="192" y="378" type="curve" smooth="yes"/>
      <point x="192" y="415"/>
      <point x="214" y="446"/>
      <point x="250" y="446" type="curve" smooth="yes"/>
      <point x="285" y="446"/>
      <point x="308" y="423"/>
      <point x="308" y="377" type="curve" smooth="yes"/>
      <point x="308" y="347"/>
      <point x="303" y="307"/>
      <point x="268" y="273" type="curve"/>
      <point x="289" y="261" type="line"/>
      <point x="374" y="256"/>
      <point x="424" y="320"/>
      <point x="424" y="370" type="curve" smooth="yes"/>
      <point x="424" y="422"/>
      <point x="371" y="484"/>
      <point x="247" y="484" type="curve" smooth="yes"/>
      <point x="120" y="484"/>
      <point x="76" y="426"/>
      <point x="76" y="366" type="curve" smooth="yes"/>
      <point x="76" y="287"/>
      <point x="153" y="242"/>
      <point x="209" y="211" type="curve" smooth="yes"/>
      <point x="282" y="172"/>
      <point x="328" y="149"/>
      <point x="328" y="97" type="curve" smooth="yes"/>
      <point x="328" y="63"/>
      <point x="303" y="27"/>
      <point x="253" y="27" type="curve" smooth="yes"/>
      <point x="214" y="27"/>
      <point x="176" y="47"/>
      <point x="176" y="111" type="curve" smooth="yes"/>
      <point x="176" y="171"/>
      <point x="206" y="207"/>
      <point x="226" y="223" type="curve"/>
      <point x="207" y="232" type="line"/>
    </contour>
  </outline>
</glyph>
<glyph name="increment" format="1">
  <advance width="688"/>
  <unicode hex="2206"/>
  <outline>
    <contour>
      <point x="668" y="0" type="line" smooth="yes"/>
      <point x="679" y="0"/>
      <point x="684" y="6"/>
      <point x="679" y="17" type="curve" smooth="yes"/>
      <point x="354" y="682" type="line" smooth="yes"/>
      <point x="349" y="693"/>
      <point x="339" y="693"/>
      <point x="334" y="682" type="curve" smooth="yes"/>
      <point x="9" y="17" type="line" smooth="yes"/>
      <point x="4" y="6"/>
      <point x="9" y="0"/>
      <point x="20" y="0" type="curve" smooth="yes"/>
    </contour>
    <contour>
      <point x="81" y="53" type="line"/>
      <point x="313" y="526" type="line"/>
      <point x="537" y="53" type="line"/>
    </contour>
  </outline>
</glyph>
<glyph name="product" format="1">
  <advance width="681"/>
  <unicode hex="220F"/>
  <outline>
    <contour>
      <point x="577" y="-159"/>
      <point x="606" y="-139"/>
      <point x="618" y="-128" type="curve"/>
      <point x="600" y="-84"/>
      <point x="598" y="-36"/>
      <point x="598" y="2" type="curve" smooth="yes"/>
      <point x="598" y="698" type="line"/>
      <point x="458" y="698" type="line"/>
      <point x="458" y="-88" type="line" smooth="yes"/>
      <point x="458" y="-133"/>
      <point x="492" y="-159"/>
      <point x="538" y="-159" type="curve" smooth="yes"/>
    </contour>
    <contour>
      <point x="182" y="-159"/>
      <point x="211" y="-139"/>
      <point x="223" y="-128" type="curve"/>
      <point x="205" y="-84"/>
      <point x="203" y="-36"/>
      <point x="203" y="2" type="curve" smooth="yes"/>
      <point x="203" y="698" type="line"/>
      <point x="63" y="698" type="line"/>
      <point x="63" y="-88" type="line" smooth="yes"/>
      <point x="63" y="-133"/>
      <point x="97" y="-159"/>
      <point x="143" y="-159" type="curve" smooth="yes"/>
    </contour>
    <contour>
      <point x="500" y="623" type="line"/>
      <point x="500" y="698" type="line"/>
      <point x="149" y="698" type="line"/>
      <point x="149" y="623" type="line"/>
    </contour>
  </outline>
</glyph>
<glyph name="integral" format="1">
  <advance width="463"/>
  <unicode hex="222B"/>
  <outline>
    <contour>
      <point x="225" y="733"/>
      <point x="173" y="651"/>
      <point x="169" y="578" type="curve" smooth="yes"/>
      <point x="131" y="10" type="line" smooth="yes"/>
      <point x="128" y="-47"/>
      <point x="70" y="-79"/>
      <point x="3" y="-46" type="curve"/>
      <point x="-7" y="-145"/>
      <point x="84" y="-157"/>
      <point x="117" y="-156" type="curve" smooth="yes"/>
      <point x="201" y="-156"/>
      <point x="258" y="-80"/>
      <point x="263" y="-2" type="curve" smooth="yes"/>
      <point x="300" y="567" type="line"/>
      <point x="303" y="624"/>
      <point x="361" y="655"/>
      <point x="428" y="623" type="curve"/>
      <point x="438" y="721"/>
      <point x="347" y="733"/>
      <point x="314" y="733" type="curve" smooth="yes"/>
    </contour>
  </outline>
</glyph>
<glyph name="fl" format="1">
  <advance width="633"/>
  <unicode hex="FB02"/>
  <outline>
    <contour>
      <point x="193" y="-15"/>
      <point x="218" y="0"/>
      <point x="236" y="16" type="curve"/>
      <point x="219" y="60"/>
      <point x="216" y="116"/>
      <point x="216" y="146" type="curve" smooth="yes"/>
      <point x="216" y="507" type="line" smooth="yes"/>
      <point x="216" y="612"/>
      <point x="210" y="701"/>
      <point x="309" y="701" type="curve" smooth="yes"/>
      <point x="370" y="701"/>
      <point x="404" y="670"/>
      <point x="404" y="590" type="curve" smooth="yes"/>
      <point x="404" y="133" type="line" smooth="yes"/>
      <point x="404" y="45"/>
      <point x="447" y="-10"/>
      <point x="527" y="-10" type="curve" smooth="yes"/>
      <point x="577" y="-10"/>
      <point x="619" y="20"/>
      <point x="619" y="62" type="curve" smooth="yes"/>
      <point x="619" y="74"/>
      <point x="615" y="91"/>
      <point x="605" y="105" type="curve"/>
      <point x="599" y="95"/>
      <point x="585" y="92"/>
      <point x="576" y="92" type="curve" smooth="yes"/>
      <point x="553" y="92"/>
      <point x="541" y="110"/>
      <point x="541" y="145" type="curve" smooth="yes"/>
      <point x="541" y="596" type="line" smooth="yes"/>
      <point x="541" y="688"/>
      <point x="461" y="743"/>
      <point x="309" y="743" type="curve" smooth="yes"/>
      <point x="134" y="743"/>
      <point x="79" y="653"/>
      <point x="79" y="532" type="curve" smooth="yes"/>
      <point x="79" y="56" type="line" smooth="yes"/>
      <point x="79" y="12"/>
      <point x="113" y="-15"/>
      <point x="158" y="-15" type="curve" smooth="yes"/>
    </contour>
    <contour>
      <point x="24" y="453"/>
      <point x="58" y="455"/>
      <point x="71" y="455" type="curve" smooth="yes"/>
      <point x="274" y="455" type="line" smooth="yes"/>
      <point x="293" y="455"/>
      <point x="308" y="466"/>
      <point x="309" y="488" type="curve" smooth="yes"/>
      <point x="310" y="520" type="line"/>
      <point x="300" y="518"/>
      <point x="236" y="516"/>
      <point x="228" y="516" type="curve" smooth="yes"/>
      <point x="48" y="516" type="line" smooth="yes"/>
      <point x="29" y="516"/>
      <point x="13" y="506"/>
      <point x="12" y="484" type="curve" smooth="yes"/>
      <point x="11" y="451" type="line"/>
    </contour>
  </outline>
</glyph>
<glyph name="alpha.ss01" format="1">
  <advance width="555"/>
  <outline>
    <contour>
      <point x="370" y="315" type="line" smooth="yes"/>
      <point x="368" y="163"/>
      <point x="261" y="112"/>
      <point x="204" y="112" type="curve" smooth="yes"/>
      <point x="112" y="112"/>
      <point x="80" y="179"/>
      <point x="80" y="222" type="curve" smooth="yes"/>
      <point x="80" y="305"/>
      <point x="145" y="389"/>
      <point x="244" y="389" type="curve" smooth="yes"/>
      <point x="304" y="389"/>
      <point x="355" y="364"/>
      <point x="396" y="296" type="curve"/>
      <point x="411" y="305" type="line"/>
      <point x="400" y="374"/>
      <point x="373" y="535"/>
      <point x="236" y="535" type="curve" smooth="yes"/>
      <point x="106" y="535"/>
      <point x="34" y="402"/>
      <point x="34" y="227" type="curve" smooth="yes"/>
      <point x="34" y="74"/>
      <point x="106" y="-18"/>
      <point x="204" y="-18" type="curve" smooth="yes"/>
      <point x="279" y="-18"/>
      <point x="348" y="17"/>
      <point x="406" y="143" type="curve"/>
      <point x="378" y="165" type="line"/>
      <point x="392" y="56"/>
      <point x="425" y="-14"/>
      <point x="491" y="-14" type="curve" smooth="yes"/>
      <point x="526" y="-14"/>
      <point x="559" y="15"/>
      <point x="559" y="56" type="curve" smooth="yes"/>
      <point x="559" y="68"/>
      <point x="555" y="85"/>
      <point x="547" y="99" type="curve"/>
      <point x="536" y="92"/>
      <point x="524" y="88"/>
      <point x="491" y="88" type="curve" smooth="yes"/>
      <point x="429" y="88"/>
      <point x="419" y="137"/>
      <point x="430" y="176" type="curve" smooth="yes"/>
      <point x="505" y="437" type="line" smooth="yes"/>
      <point x="525" y="506"/>
      <point x="478" y="531"/>
      <point x="425" y="531" type="curve" smooth="yes"/>
      <point x="406" y="531"/>
      <point x="385" y="526"/>
      <point x="373" y="516" type="curve"/>
    </contour>
    <contour>
      <point x="236" y="520" type="move" name="top"/>
    </contour>
    <contour>
      <point x="277" y="0" type="move" name="bottom"/>
    </contour>
  </outline>
</glyph>
<glyph name="alpha.ss02" format="1">
  <advance width="555"/>
  <outline>
    <contour>
      <point x="380" y="493"/>
      <point x="381" y="481"/>
      <point x="382" y="460" type="curve" smooth="yes"/>
      <point x="387" y="296" type="line" smooth="yes"/>
      <point x="391" y="171"/>
      <point x="288" y="128"/>
      <point x="213" y="128" type="curve" smooth="yes"/>
      <point x="121" y="128"/>
      <point x="80" y="181"/>
      <point x="80" y="240" type="curve" smooth="yes"/>
      <point x="80" y="316"/>
      <point x="145" y="389"/>
      <point x="244" y="389" type="curve" smooth="yes"/>
      <point x="304" y="389"/>
      <point x="365" y="364"/>
      <point x="406" y="296" type="curve"/>
      <point x="421" y="305" type="line"/>
      <point x="409" y="354"/>
      <point x="373" y="535"/>
      <point x="236" y="535" type="curve" smooth="yes"/>
      <point x="106" y="535"/>
      <point x="34" y="402"/>
      <point x="34" y="227" type="curve" smooth="yes"/>
      <point x="34" y="74"/>
      <point x="106" y="-18"/>
      <point x="204" y="-18" type="curve" smooth="yes"/>
      <point x="279" y="-18"/>
      <point x="355" y="17"/>
      <point x="413" y="143" type="curve"/>
      <point x="406" y="179" type="line"/>
      <point x="395" y="36"/>
      <point x="425" y="-14"/>
      <point x="485" y="-14" type="curve" smooth="yes"/>
      <point x="526" y="-14"/>
      <point x="559" y="15"/>
      <point x="559" y="56" type="curve" smooth="yes"/>
      <point x="559" y="71"/>
      <point x="555" y="92"/>
      <point x="547" y="109" type="curve"/>
      <point x="536" y="102"/>
      <point x="524" y="98"/>
      <point x="508" y="98" type="curve" smooth="yes"/>
      <point x="447" y="98"/>
      <point x="435" y="177"/>
      <point x="450" y="228" type="curve" smooth="yes"/>
      <point x="515" y="437" type="line" smooth="yes"/>
      <point x="535" y="505"/>
      <point x="495" y="531"/>
      <point x="455" y="531" type="curve" smooth="yes"/>
      <point x="413" y="531"/>
      <point x="387" y="517"/>
      <point x="376" y="506" type="curve"/>
    </contour>
    <contour>
      <point x="238" y="520" type="move" name="top"/>
    </contour>
    <contour>
      <point x="277" y="0" type="move" name="bottom"/>
    </contour>
  </outline>
</glyph>
<glyph name="alpha.ss03" format="1">
  <advance width="605"/>
  <outline>
    <contour>
      <point x="392" y="350" type="line"/>
      <point x="378" y="431"/>
      <point x="342" y="535"/>
      <point x="244" y="535" type="curve" smooth="yes"/>
      <point x="114" y="535"/>
      <point x="34" y="402"/>
      <point x="34" y="227" type="curve" smooth="yes"/>
      <point x="34" y="74"/>
      <point x="106" y="-18"/>
      <point x="211" y="-18" type="curve" smooth="yes"/>
      <point x="279" y="-18"/>
      <point x="365" y="17"/>
      <point x="423" y="145" type="curve"/>
      <point x="414" y="172" type="line"/>
      <point x="399" y="56"/>
      <point x="433" y="-14"/>
      <point x="515" y="-14" type="curve" smooth="yes"/>
      <point x="569" y="-14"/>
      <point x="603" y="23"/>
      <point x="603" y="62" type="curve" smooth="yes"/>
      <point x="603" y="74"/>
      <point x="598" y="94"/>
      <point x="590" y="108" type="curve"/>
      <point x="579" y="101"/>
      <point x="549" y="88"/>
      <point x="523" y="88" type="curve" smooth="yes"/>
      <point x="465" y="88"/>
      <point x="448" y="135"/>
      <point x="448" y="169" type="curve"/>
      <point x="523" y="437" type="line" smooth="yes"/>
      <point x="542" y="504"/>
      <point x="478" y="531"/>
      <point x="428" y="531" type="curve" smooth="yes"/>
      <point x="414" y="531"/>
      <point x="399" y="527"/>
      <point x="394" y="522" type="curve"/>
      <point x="354" y="315" type="line" smooth="yes"/>
      <point x="322" y="151"/>
      <point x="254" y="92"/>
      <point x="184" y="92" type="curve" smooth="yes"/>
      <point x="109" y="92"/>
      <point x="80" y="161"/>
      <point x="80" y="222" type="curve" smooth="yes"/>
      <point x="80" y="311"/>
      <point x="145" y="389"/>
      <point x="244" y="389" type="curve" smooth="yes"/>
      <point x="290" y="389"/>
      <point x="339" y="367"/>
      <point x="372" y="325" type="curve"/>
    </contour>
    <contour>
      <point x="244" y="520" type="move" name="top"/>
    </contour>
    <contour>
      <point x="277" y="0" type="move" name="bottom"/>
    </contour>
  </outline>
</glyph>
<glyph name="alpha.ss04" format="1">
  <advance width="600"/>
  <outline>
    <contour>
      <point x="395" y="340" type="line"/>
      <point x="385" y="431"/>
      <point x="347" y="535"/>
      <point x="249" y="535" type="curve" smooth="yes"/>
      <point x="131" y="535"/>
      <point x="65" y="402"/>
      <point x="65" y="227" type="curve" smooth="yes"/>
      <point x="65" y="74"/>
      <point x="121" y="-18"/>
      <point x="211" y="-18" type="curve" smooth="yes"/>
      <point x="290" y="-18"/>
      <point x="378" y="59"/>
      <point x="433" y="223" type="curve"/>
      <point x="440" y="254" type="line"/>
      <point x="405" y="186"/>
      <point x="392" y="133"/>
      <point x="392" y="89" type="curve" smooth="yes"/>
      <point x="392" y="20"/>
      <point x="435" y="-14"/>
      <point x="487" y="-14" type="curve" smooth="yes"/>
      <point x="535" y="-14"/>
      <point x="570" y="17"/>
      <point x="570" y="66" type="curve" smooth="yes"/>
      <point x="570" y="85"/>
      <point x="566" y="104"/>
      <point x="558" y="118" type="curve"/>
      <point x="547" y="112"/>
      <point x="515" y="108"/>
      <point x="494" y="108" type="curve" smooth="yes"/>
      <point x="431" y="108"/>
      <point x="431" y="149"/>
      <point x="449" y="207" type="curve" smooth="yes"/>
      <point x="520" y="437" type="line" smooth="yes"/>
      <point x="540" y="503"/>
      <point x="494" y="531"/>
      <point x="443" y="531" type="curve" smooth="yes"/>
      <point x="419" y="531"/>
      <point x="398" y="525"/>
      <point x="386" y="516" type="curve"/>
      <point x="391" y="360" type="line" smooth="yes"/>
      <point x="396" y="221"/>
      <point x="307" y="128"/>
      <point x="220" y="128" type="curve" smooth="yes"/>
      <point x="145" y="128"/>
      <point x="111" y="177"/>
      <point x="111" y="238" type="curve" smooth="yes"/>
      <point x="111" y="311"/>
      <point x="169" y="389"/>
      <point x="257" y="389" type="curve" smooth="yes"/>
      <point x="303" y="389"/>
      <point x="350" y="367"/>
      <point x="393" y="310" type="curve"/>
    </contour>
    <contour>
      <point x="249" y="520" type="move" name="top"/>
    </contour>
    <contour>
      <point x="290" y="0" type="move" name="bottom"/>
    </contour>
  </outline>
</glyph>
<glyph name="epsilon.ss01" format="1">
  <advance width="490"/>
  <outline>
    <contour>
      <point x="382" y="-18"/>
      <point x="452" y="78"/>
      <point x="452" y="167" type="curve" smooth="yes"/>
      <point x="452" y="188"/>
      <point x="444" y="199"/>
      <point x="436" y="202" type="curve"/>
      <point x="414" y="157"/>
      <point x="341" y="122"/>
      <point x="258" y="122" type="curve" smooth="yes"/>
      <point x="181" y="122"/>
      <point x="127" y="140"/>
      <point x="127" y="188" type="curve" smooth="yes"/>
      <point x="127" y="257"/>
      <point x="201" y="276"/>
      <point x="236" y="279" type="curve"/>
      <point x="239" y="267" type="line"/>
      <point x="191" y="266"/>
      <point x="124" y="290"/>
      <point x="124" y="337" type="curve" smooth="yes"/>
      <point x="124" y="382"/>
      <point x="175" y="396"/>
      <point x="249" y="396" type="curve" smooth="yes"/>
      <point x="297" y="396"/>
      <point x="360" y="382"/>
      <point x="391" y="353" type="curve"/>
      <point x="409" y="368"/>
      <point x="434" y="389"/>
      <point x="434" y="425" type="curve" smooth="yes"/>
      <point x="434" y="501"/>
      <point x="327" y="535"/>
      <point x="258" y="535" type="curve" smooth="yes"/>
      <point x="110" y="535"/>
      <point x="52" y="458"/>
      <point x="52" y="379" type="curve" smooth="yes"/>
      <point x="52" y="254"/>
      <point x="208" y="233"/>
      <point x="247" y="233" type="curve" smooth="yes"/>
      <point x="321" y="233"/>
      <point x="306" y="300"/>
      <point x="295" y="315" type="curve"/>
      <point x="144" y="307"/>
      <point x="47" y="253"/>
      <point x="49" y="136" type="curve" smooth="yes"/>
      <point x="50" y="55"/>
      <point x="108" y="-18"/>
      <point x="243" y="-18" type="curve"/>
    </contour>
    <contour>
      <point x="201" y="283" type="line"/>
      <point x="181" y="257" type="line"/>
      <point x="217" y="252" type="line"/>
      <point x="255" y="260" type="line"/>
      <point x="256" y="291" type="line"/>
    </contour>
    <contour>
      <point x="256" y="520" type="move" name="top"/>
    </contour>
  </outline>
</glyph>
<glyph name="epsilon.ss04" format="1">
  <advance width="493"/>
  <outline>
    <contour>
      <point x="210" y="260" type="line"/>
      <point x="180" y="287"/>
      <point x="166" y="324"/>
      <point x="166" y="377" type="curve" smooth="yes"/>
      <point x="166" y="447"/>
      <point x="194" y="489"/>
      <point x="242" y="489" type="curve" smooth="yes"/>
      <point x="280" y="489"/>
      <point x="300" y="471"/>
      <point x="300" y="435" type="curve" smooth="yes"/>
      <point x="300" y="411"/>
      <point x="290" y="390"/>
      <point x="272" y="376" type="curve"/>
      <point x="284" y="366"/>
      <point x="312" y="359"/>
      <point x="342" y="359" type="curve" smooth="yes"/>
      <point x="399" y="359"/>
      <point x="437" y="388"/>
      <point x="437" y="432" type="curve" smooth="yes"/>
      <point x="437" y="494"/>
      <point x="364" y="533"/>
      <point x="249" y="533" type="curve" smooth="yes"/>
      <point x="112" y="533"/>
      <point x="21" y="472"/>
      <point x="21" y="381" type="curve" smooth="yes"/>
      <point x="21" y="313"/>
      <point x="65" y="267"/>
      <point x="158" y="238" type="curve"/>
      <point x="159" y="238" type="line"/>
      <point x="216" y="219"/>
      <point x="243" y="213"/>
      <point x="278" y="213" type="curve" smooth="yes"/>
      <point x="333" y="213"/>
      <point x="359" y="257"/>
      <point x="332" y="303" type="curve"/>
      <point x="277" y="304"/>
      <point x="227" y="292"/>
      <point x="182" y="267" type="curve"/>
      <point x="183" y="253" type="line"/>
      <point x="76" y="247"/>
      <point x="6" y="195"/>
      <point x="6" y="122" type="curve" smooth="yes"/>
      <point x="6" y="36"/>
      <point x="93" y="-18"/>
      <point x="230" y="-18" type="curve" smooth="yes"/>
      <point x="341" y="-18"/>
      <point x="424" y="27"/>
      <point x="444" y="98" type="curve" smooth="yes"/>
      <point x="452" y="124"/>
      <point x="447" y="145"/>
      <point x="431" y="157" type="curve"/>
      <point x="404" y="100"/>
      <point x="351" y="70"/>
      <point x="276" y="70" type="curve" smooth="yes"/>
      <point x="206" y="70"/>
      <point x="165" y="104"/>
      <point x="165" y="162" type="curve" smooth="yes"/>
      <point x="165" y="201"/>
      <point x="179" y="226"/>
      <point x="217" y="254" type="curve"/>
    </contour>
    <contour>
      <point x="273.1237381935074" y="520.0" type="move" name="top"/>
    </contour>
  </outline>
</glyph>
<glyph name="eta.ss01" format="1">
  <advance width="566"/>
  <outline>
    <contour>
      <point x="527" y="-13" type="curve" smooth="yes"/>
      <point x="517" y="321" type="line" smooth="yes"/>
      <point x="513" y="467"/>
      <point x="461" y="535"/>
      <point x="376" y="535" type="curve" smooth="yes"/>
      <point x="293" y="535"/>
      <point x="211" y="456"/>
      <point x="168" y="297" type="curve"/>
      <point x="211" y="322" type="line"/>
      <point x="201" y="409" type="line" smooth="yes"/>
      <point x="191" y="499"/>
      <point x="136" y="531"/>
      <point x="93" y="531" type="curve" smooth="yes"/>
      <point x="52" y="531"/>
      <point x="14" y="503"/>
      <point x="14" y="462" type="curve" smooth="yes"/>
      <point x="14" y="446"/>
      <point x="17" y="432"/>
      <point x="25" y="418" type="curve"/>
      <point x="31" y="424"/>
      <point x="64" y="429"/>
      <point x="82" y="429" type="curve" smooth="yes"/>
      <point x="153" y="429"/>
      <point x="166" y="395"/>
      <point x="152" y="330" type="curve" smooth="yes"/>
      <point x="97" y="84" type="line" smooth="yes"/>
      <point x="82" y="18"/>
      <point x="101" y="-14"/>
      <point x="163" y="-14" type="curve" smooth="yes"/>
      <point x="205" y="-14"/>
      <point x="229" y="3"/>
      <point x="246" y="16" type="curve"/>
      <point x="231" y="64"/>
      <point x="227" y="170"/>
      <point x="220" y="220" type="curve" smooth="yes"/>
      <point x="208" y="314"/>
      <point x="305" y="388"/>
      <point x="378" y="388" type="curve" smooth="yes"/>
      <point x="438" y="388"/>
      <point x="473" y="350"/>
      <point x="473" y="279" type="curve" smooth="yes"/>
      <point x="473" y="199"/>
      <point x="388" y="-137"/>
      <point x="361" y="-177" type="curve"/>
      <point x="380" y="-208"/>
      <point x="412" y="-224"/>
      <point x="452" y="-224" type="curve" smooth="yes"/>
      <point x="540" y="-224"/>
      <point x="531" y="-130"/>
    </contour>
    <contour>
      <point x="366" y="520" type="move" name="top"/>
    </contour>
    <contour>
      <point x="332" y="0" type="move" name="bottom"/>
    </contour>
  </outline>
</glyph>
<glyph name="eta.ss03" format="1">
  <advance width="560"/>
  <outline>
    <contour>
      <point x="498" y="458"/>
      <point x="457" y="535"/>
      <point x="360" y="535" type="curve" smooth="yes"/>
      <point x="253" y="535"/>
      <point x="180" y="443"/>
      <point x="129" y="199" type="curve"/>
      <point x="185" y="167" type="line"/>
      <point x="192" y="383" type="line" smooth="yes"/>
      <point x="196" y="496"/>
      <point x="156" y="531"/>
      <point x="103" y="531" type="curve" smooth="yes"/>
      <point x="51" y="531"/>
      <point x="12" y="494"/>
      <point x="12" y="455" type="curve" smooth="yes"/>
      <point x="12" y="443"/>
      <point x="17" y="423"/>
      <point x="25" y="409" type="curve"/>
      <point x="36" y="416"/>
      <point x="56" y="430"/>
      <point x="90" y="430" type="curve" smooth="yes"/>
      <point x="131" y="430"/>
      <point x="157" y="389"/>
      <point x="148" y="326" type="curve" smooth="yes"/>
      <point x="106" y="45" type="line" smooth="yes"/>
      <point x="101" y="11"/>
      <point x="146" y="-14"/>
      <point x="185" y="-14" type="curve" smooth="yes"/>
      <point x="228" y="-14"/>
      <point x="256" y="10"/>
      <point x="261" y="15" type="curve"/>
      <point x="255" y="35"/>
      <point x="248" y="61"/>
      <point x="242" y="98" type="curve" smooth="yes"/>
      <point x="207" y="321" type="line"/>
      <point x="239" y="355"/>
      <point x="297" y="389"/>
      <point x="356" y="389" type="curve" smooth="yes"/>
      <point x="437" y="389"/>
      <point x="457" y="347"/>
      <point x="457" y="278" type="curve" smooth="yes"/>
      <point x="457" y="207"/>
      <point x="412" y="5"/>
      <point x="373" y="-106" type="curve" smooth="yes"/>
      <point x="360" y="-143"/>
      <point x="348" y="-164"/>
      <point x="338" y="-175" type="curve"/>
      <point x="361" y="-206"/>
      <point x="397" y="-224"/>
      <point x="437" y="-224" type="curve" smooth="yes"/>
      <point x="521" y="-224"/>
      <point x="516" y="-130"/>
      <point x="512" y="-13" type="curve" smooth="yes"/>
      <point x="502" y="321" type="line" smooth="yes"/>
    </contour>
    <contour>
      <point x="358" y="520" type="move" name="top"/>
    </contour>
  </outline>
</glyph>
<glyph name="eta.ss04" format="1">
  <advance width="581"/>
  <outline>
    <contour>
      <point x="519" y="-13" type="curve" smooth="yes"/>
      <point x="509" y="321" type="line" smooth="yes"/>
      <point x="505" y="467"/>
      <point x="467" y="535"/>
      <point x="388" y="535" type="curve" smooth="yes"/>
      <point x="305" y="535"/>
      <point x="226" y="439"/>
      <point x="190" y="285" type="curve"/>
      <point x="200" y="298" type="line"/>
      <point x="227" y="439"/>
      <point x="219" y="531"/>
      <point x="124" y="531" type="curve" smooth="yes"/>
      <point x="69" y="531"/>
      <point x="35" y="496"/>
      <point x="35" y="455" type="curve" smooth="yes"/>
      <point x="35" y="439"/>
      <point x="39" y="410"/>
      <point x="47" y="396" type="curve"/>
      <point x="53" y="402"/>
      <point x="71" y="409"/>
      <point x="101" y="409" type="curve" smooth="yes"/>
      <point x="153" y="409"/>
      <point x="165" y="384"/>
      <point x="153" y="311" type="curve" smooth="yes"/>
      <point x="115" y="80" type="line" smooth="yes"/>
      <point x="104" y="13"/>
      <point x="140" y="-14"/>
      <point x="187" y="-14" type="curve" smooth="yes"/>
      <point x="209" y="-14"/>
      <point x="235" y="-8"/>
      <point x="260" y="11" type="curve"/>
      <point x="250" y="26"/>
      <point x="244" y="68"/>
      <point x="230" y="212" type="curve" smooth="yes"/>
      <point x="222" y="298"/>
      <point x="317" y="388"/>
      <point x="391" y="388" type="curve" smooth="yes"/>
      <point x="441" y="388"/>
      <point x="452" y="350"/>
      <point x="452" y="279" type="curve" smooth="yes"/>
      <point x="452" y="199"/>
      <point x="412" y="5"/>
      <point x="380" y="-106" type="curve" smooth="yes"/>
      <point x="369" y="-144"/>
      <point x="355" y="-164"/>
      <point x="345" y="-175" type="curve"/>
      <point x="368" y="-206"/>
      <point x="404" y="-224"/>
      <point x="444" y="-224" type="curve" smooth="yes"/>
      <point x="528" y="-224"/>
      <point x="523" y="-130"/>
    </contour>
    <contour>
      <point x="391.0" y="520.0" type="move" name="top"/>
    </contour>
    <contour>
      <point x="331.0" y="0.0" type="move" name="bottom"/>
    </contour>
  </outline>
</glyph>
<glyph name="g_tildecomb" format="1">
  <advance width="547"/>
  <outline>
    <component base="g"/>
    <component base="tildecomb" xOffset="-15" yOffset="1"/>
    <contour>
      <point x="300" y="516" type="move" name="top"/>
    </contour>
    <contour>
      <point x="300" y="0" type="move" name="bottom"/>
    </contour>
  </outline>
</glyph>
<glyph name="iota.ss01" format="1">
  <advance width="261"/>
  <outline>
    <contour>
      <point x="57" y="455"/>
      <point x="60" y="417"/>
      <point x="60" y="202" type="curve" smooth="yes"/>
      <point x="60" y="68"/>
      <point x="84" y="-14"/>
      <point x="170" y="-14" type="curve" smooth="yes"/>
      <point x="217" y="-14"/>
      <point x="250" y="15"/>
      <point x="250" y="56" type="curve" smooth="yes"/>
      <point x="250" y="68"/>
      <point x="246" y="85"/>
      <point x="238" y="99" type="curve"/>
      <point x="227" y="92"/>
      <point x="207" y="88"/>
      <point x="185" y="88" type="curve" smooth="yes"/>
      <point x="125" y="88"/>
      <point x="95" y="116"/>
      <point x="113" y="172" type="curve" smooth="yes"/>
      <point x="196" y="437" type="line" smooth="yes"/>
      <point x="218" y="506"/>
      <point x="169" y="531"/>
      <point x="125" y="531" type="curve" smooth="yes"/>
      <point x="97" y="531"/>
      <point x="76" y="526"/>
      <point x="46" y="503" type="curve"/>
    </contour>
    <contour>
      <point x="125" y="520" type="move" name="top"/>
    </contour>
  </outline>
</glyph>
<glyph name="iota.ss03" format="1">
  <advance width="270"/>
  <outline>
    <contour>
      <point x="49" y="484"/>
      <point x="62" y="452"/>
      <point x="63" y="377" type="curve" smooth="yes"/>
      <point x="64" y="172" type="line" smooth="yes"/>
      <point x="65" y="56"/>
      <point x="84" y="-14"/>
      <point x="177" y="-14" type="curve" smooth="yes"/>
      <point x="222" y="-14"/>
      <point x="262" y="17"/>
      <point x="262" y="59" type="curve" smooth="yes"/>
      <point x="262" y="76"/>
      <point x="257" y="94"/>
      <point x="249" y="109" type="curve"/>
      <point x="228" y="94"/>
      <point x="201" y="88"/>
      <point x="186" y="88" type="curve" smooth="yes"/>
      <point x="115" y="88"/>
      <point x="98" y="143"/>
      <point x="119" y="207" type="curve" smooth="yes"/>
      <point x="191" y="423" type="line" smooth="yes"/>
      <point x="219" y="506"/>
      <point x="159" y="532"/>
      <point x="120" y="532" type="curve" smooth="yes"/>
      <point x="84" y="532"/>
      <point x="52" y="512"/>
      <point x="43" y="502" type="curve"/>
    </contour>
    <contour>
      <point x="124" y="520" type="move" name="top"/>
    </contour>
  </outline>
</glyph>
<glyph name="iota.ss04" format="1">
  <advance width="276"/>
  <outline>
    <contour>
      <point x="78" y="190" type="line" smooth="yes"/>
      <point x="83" y="42"/>
      <point x="105" y="-14"/>
      <point x="175" y="-14" type="curve" smooth="yes"/>
      <point x="222" y="-14"/>
      <point x="256" y="17"/>
      <point x="256" y="66" type="curve" smooth="yes"/>
      <point x="256" y="85"/>
      <point x="252" y="104"/>
      <point x="244" y="118" type="curve"/>
      <point x="234" y="112"/>
      <point x="202" y="108"/>
      <point x="182" y="108" type="curve" smooth="yes"/>
      <point x="119" y="108"/>
      <point x="115" y="140"/>
      <point x="133" y="200" type="curve" smooth="yes"/>
      <point x="202" y="426" type="line" smooth="yes"/>
      <point x="222" y="492"/>
      <point x="192" y="531"/>
      <point x="131" y="531" type="curve" smooth="yes"/>
      <point x="107" y="531"/>
      <point x="86" y="527"/>
      <point x="53" y="502" type="curve"/>
      <point x="70" y="462"/>
      <point x="71" y="415"/>
      <point x="73" y="352" type="curve" smooth="yes"/>
    </contour>
    <contour>
      <point x="134" y="520" type="move" name="top"/>
    </contour>
  </outline>
</glyph>
<glyph name="macroncomb.cap" format="1">
  <advance width="600"/>
  <outline>
    <contour>
      <point x="117" y="638"/>
      <point x="117" y="618"/>
      <point x="123" y="597" type="curve"/>
      <point x="407" y="597" type="line"/>
      <point x="413" y="618"/>
      <point x="413" y="638"/>
      <point x="407" y="658" type="curve"/>
      <point x="123" y="658" type="line"/>
    </contour>
    <contour>
      <point x="280" y="112" type="move" name="top"/>
    </contour>
    <contour>
      <point x="264" y="516" type="move" name="_top"/>
    </contour>
  </outline>
</glyph>
<glyph name="mu.ss02" format="1">
  <advance width="572"/>
  <outline>
    <contour>
      <point x="533" y="102"/>
      <point x="518" y="98"/>
      <point x="497" y="98" type="curve" smooth="yes"/>
      <point x="431" y="98"/>
      <point x="415" y="178"/>
      <point x="430" y="217" type="curve" smooth="yes"/>
      <point x="509" y="427" type="line" smooth="yes"/>
      <point x="538" y="505"/>
      <point x="499" y="531"/>
      <point x="455" y="531" type="curve" smooth="yes"/>
      <point x="427" y="531"/>
      <point x="396" y="526"/>
      <point x="374" y="506" type="curve"/>
      <point x="384" y="467"/>
      <point x="380" y="417"/>
      <point x="380" y="254" type="curve" smooth="yes"/>
      <point x="380" y="193"/>
      <point x="336" y="126"/>
      <point x="261" y="126" type="curve" smooth="yes"/>
      <point x="194" y="126"/>
      <point x="142" y="181"/>
      <point x="130" y="235" type="curve"/>
      <point x="197" y="417" type="line" smooth="yes"/>
      <point x="218" y="475"/>
      <point x="218" y="531"/>
      <point x="147" y="531" type="curve" smooth="yes"/>
      <point x="104" y="531"/>
      <point x="77" y="515"/>
      <point x="66" y="505" type="curve"/>
      <point x="77" y="473"/>
      <point x="71" y="311"/>
      <point x="71" y="-8" type="curve" smooth="yes"/>
      <point x="71" y="-135"/>
      <point x="52" y="-224"/>
      <point x="134" y="-224" type="curve" smooth="yes"/>
      <point x="161" y="-224"/>
      <point x="194" y="-214"/>
      <point x="213" y="-194" type="curve"/>
      <point x="205" y="-177"/>
      <point x="203" y="-165"/>
      <point x="197" y="-141" type="curve" smooth="yes"/>
      <point x="186" y="-96"/>
      <point x="153" y="13"/>
      <point x="137" y="106" type="curve"/>
      <point x="175" y="12"/>
      <point x="227" y="-18"/>
      <point x="259" y="-18" type="curve" smooth="yes"/>
      <point x="314" y="-18"/>
      <point x="352" y="17"/>
      <point x="384" y="115" type="curve"/>
      <point x="395" y="27"/>
      <point x="429" y="-14"/>
      <point x="483" y="-14" type="curve" smooth="yes"/>
      <point x="523" y="-14"/>
      <point x="557" y="17"/>
      <point x="557" y="58" type="curve" smooth="yes"/>
      <point x="557" y="73"/>
      <point x="552" y="95"/>
      <point x="544" y="109" type="curve"/>
    </contour>
  </outline>
</glyph>
<glyph name="mu.ss03" format="1">
  <advance width="612"/>
  <outline>
    <contour>
      <point x="579" y="112"/>
      <point x="559" y="108"/>
      <point x="523" y="108" type="curve" smooth="yes"/>
      <point x="472" y="108"/>
      <point x="444" y="141"/>
      <point x="469" y="212" type="curve" smooth="yes"/>
      <point x="546" y="437" type="line" smooth="yes"/>
      <point x="570" y="506"/>
      <point x="519" y="531"/>
      <point x="475" y="531" type="curve" smooth="yes"/>
      <point x="447" y="531"/>
      <point x="426" y="526"/>
      <point x="415" y="516" type="curve"/>
      <point x="410" y="270" type="line" smooth="yes"/>
      <point x="408" y="190"/>
      <point x="357" y="126"/>
      <point x="276" y="126" type="curve" smooth="yes"/>
      <point x="206" y="126"/>
      <point x="182" y="187"/>
      <point x="182" y="256" type="curve" smooth="yes"/>
      <point x="182" y="279"/>
      <point x="187" y="315"/>
      <point x="194" y="343" type="curve" smooth="yes"/>
      <point x="210" y="404"/>
      <point x="232" y="441"/>
      <point x="232" y="465" type="curve" smooth="yes"/>
      <point x="232" y="513"/>
      <point x="191" y="531"/>
      <point x="151" y="531" type="curve" smooth="yes"/>
      <point x="116" y="531"/>
      <point x="96" y="520"/>
      <point x="90" y="511" type="curve"/>
      <point x="77" y="23" type="line" smooth="yes"/>
      <point x="73" y="-127"/>
      <point x="67" y="-224"/>
      <point x="151" y="-224" type="curve" smooth="yes"/>
      <point x="191" y="-224"/>
      <point x="227" y="-206"/>
      <point x="250" y="-175" type="curve"/>
      <point x="223" y="-149"/>
      <point x="158" y="27"/>
      <point x="136" y="208" type="curve"/>
      <point x="139" y="208" type="line"/>
      <point x="170" y="54"/>
      <point x="228" y="-18"/>
      <point x="300" y="-18" type="curve" smooth="yes"/>
      <point x="354" y="-18"/>
      <point x="407" y="30"/>
      <point x="422" y="109" type="curve"/>
      <point x="424" y="25"/>
      <point x="463" y="-14"/>
      <point x="517" y="-14" type="curve" smooth="yes"/>
      <point x="579" y="-14"/>
      <point x="604" y="31"/>
      <point x="604" y="72" type="curve" smooth="yes"/>
      <point x="604" y="84"/>
      <point x="598" y="105"/>
      <point x="590" y="119" type="curve"/>
    </contour>
  </outline>
</glyph>
<glyph name="mu.ss04" format="1">
  <advance width="613"/>
  <outline>
    <contour>
      <point x="135" y="179" type="line"/>
      <point x="144" y="135" type="line"/>
      <point x="164" y="139" type="line"/>
      <point x="152" y="181" type="line"/>
    </contour>
    <contour>
      <point x="530" y="468" type="curve" smooth="yes"/>
      <point x="530" y="509"/>
      <point x="505" y="531"/>
      <point x="459" y="531" type="curve" smooth="yes"/>
      <point x="428" y="531"/>
      <point x="398" y="521"/>
      <point x="366" y="500" type="curve"/>
      <point x="383" y="467"/>
      <point x="387" y="417"/>
      <point x="387" y="242" type="curve" smooth="yes"/>
      <point x="387" y="155"/>
      <point x="325" y="80"/>
      <point x="253" y="80" type="curve" smooth="yes"/>
      <point x="205" y="80"/>
      <point x="183" y="102"/>
      <point x="183" y="149" type="curve" smooth="yes"/>
      <point x="183" y="288"/>
      <point x="220" y="405"/>
      <point x="220" y="468" type="curve" smooth="yes"/>
      <point x="220" y="509"/>
      <point x="195" y="531"/>
      <point x="149" y="531" type="curve" smooth="yes"/>
      <point x="118" y="531"/>
      <point x="88" y="521"/>
      <point x="56" y="500" type="curve"/>
      <point x="69" y="463"/>
      <point x="75" y="338"/>
      <point x="75" y="98" type="curve" smooth="yes"/>
      <point x="75" y="-14"/>
      <point x="66" y="-70"/>
      <point x="67" y="-132" type="curve" smooth="yes"/>
      <point x="68" y="-191"/>
      <point x="97" y="-224"/>
      <point x="145" y="-224" type="curve" smooth="yes"/>
      <point x="184" y="-224"/>
      <point x="215" y="-201"/>
      <point x="235" y="-165" type="curve"/>
      <point x="178" y="-126"/>
      <point x="157" y="-73"/>
      <point x="150" y="48" type="curve" smooth="yes"/>
      <point x="141" y="208" type="line"/>
      <point x="134" y="103" type="line"/>
      <point x="137" y="29"/>
      <point x="179" y="-18"/>
      <point x="243" y="-18" type="curve" smooth="yes"/>
      <point x="317" y="-18"/>
      <point x="380" y="53"/>
      <point x="407" y="166" type="curve"/>
      <point x="403" y="169" type="line"/>
      <point x="406" y="35"/>
      <point x="443" y="-18"/>
      <point x="508" y="-18" type="curve" smooth="yes"/>
      <point x="561" y="-18"/>
      <point x="597" y="18"/>
      <point x="597" y="69" type="curve" smooth="yes"/>
      <point x="597" y="80"/>
      <point x="594" y="92"/>
      <point x="588" y="110" type="curve"/>
      <point x="565.858775895734" y="99.37221242995233"/>
      <point x="554.5714285714286" y="95.0"/>
      <point x="528" y="95" type="curve" smooth="yes"/>
      <point x="500" y="95"/>
      <point x="489" y="107"/>
      <point x="489" y="140" type="curve" smooth="yes"/>
      <point x="489.0" y="203.0"/>
      <point x="530" y="427"/>
    </contour>
  </outline>
</glyph>
<glyph name="omicron.ss01" format="1">
  <advance width="470"/>
  <outline>
    <contour>
      <point x="449" y="400"/>
      <point x="402" y="535"/>
      <point x="246" y="535" type="curve" smooth="yes"/>
      <point x="117" y="535"/>
      <point x="29" y="408"/>
      <point x="35" y="227" type="curve" smooth="yes"/>
      <point x="40" y="96"/>
      <point x="103" y="-18"/>
      <point x="246" y="-18" type="curve" smooth="yes"/>
      <point x="371" y="-18"/>
      <point x="459" y="108"/>
      <point x="453" y="290" type="curve" smooth="yes"/>
    </contour>
    <contour>
      <point x="335" y="390"/>
      <point x="407" y="365"/>
      <point x="407" y="287" type="curve" smooth="yes"/>
      <point x="407" y="211"/>
      <point x="347" y="126"/>
      <point x="214" y="126" type="curve" smooth="yes"/>
      <point x="142" y="126"/>
      <point x="81" y="162"/>
      <point x="81" y="231" type="curve" smooth="yes"/>
      <point x="81" y="305"/>
      <point x="152" y="390"/>
      <point x="280" y="390" type="curve" smooth="yes"/>
    </contour>
    <contour>
      <point x="246" y="520" type="move" name="top"/>
    </contour>
  </outline>
</glyph>
<glyph name="omicron.ss04" format="1">
  <advance width="487"/>
  <outline>
    <contour>
      <point x="428" y="400"/>
      <point x="386" y="535"/>
      <point x="253" y="535" type="curve" smooth="yes"/>
      <point x="129" y="535"/>
      <point x="50" y="408"/>
      <point x="55" y="227" type="curve" smooth="yes"/>
      <point x="60" y="96"/>
      <point x="117" y="-18"/>
      <point x="245" y="-18" type="curve" smooth="yes"/>
      <point x="358" y="-18"/>
      <point x="437" y="108"/>
      <point x="432" y="290" type="curve" smooth="yes"/>
    </contour>
    <contour>
      <point x="323" y="390"/>
      <point x="386" y="365"/>
      <point x="386" y="287" type="curve" smooth="yes"/>
      <point x="386" y="211"/>
      <point x="334" y="126"/>
      <point x="216" y="126" type="curve" smooth="yes"/>
      <point x="153" y="126"/>
      <point x="98" y="162"/>
      <point x="98" y="231" type="curve" smooth="yes"/>
      <point x="98" y="305"/>
      <point x="161" y="390"/>
      <point x="273" y="390" type="curve" smooth="yes"/>
    </contour>
    <contour>
      <point x="252" y="520" type="move" name="top"/>
    </contour>
  </outline>
</glyph>
<glyph name="pi.ss01" format="1">
  <advance width="631"/>
  <outline>
    <contour>
      <point x="67" y="364"/>
      <point x="118" y="384"/>
      <point x="218" y="384" type="curve" smooth="yes"/>
      <point x="563" y="385" type="line" smooth="yes"/>
      <point x="608" y="385"/>
      <point x="634" y="418"/>
      <point x="634" y="463" type="curve" smooth="yes"/>
      <point x="634" y="501"/>
      <point x="614" y="528"/>
      <point x="604" y="540" type="curve"/>
      <point x="559" y="523"/>
      <point x="511" y="520"/>
      <point x="483" y="520" type="curve" smooth="yes"/>
      <point x="92" y="520" type="line" smooth="yes"/>
      <point x="63" y="520"/>
      <point x="24" y="497"/>
      <point x="24" y="441" type="curve" smooth="yes"/>
      <point x="24" y="422"/>
      <point x="32" y="387"/>
      <point x="54" y="362" type="curve"/>
    </contour>
    <contour>
      <point x="227" y="-14"/>
      <point x="245" y="29"/>
      <point x="251" y="108" type="curve" smooth="yes"/>
      <point x="274" y="398" type="line"/>
      <point x="230" y="411" type="line"/>
      <point x="189" y="151"/>
      <point x="103" y="77"/>
      <point x="70" y="40" type="curve"/>
      <point x="87" y="20"/>
      <point x="133" y="-14"/>
      <point x="173" y="-14" type="curve" smooth="yes"/>
    </contour>
    <contour>
      <point x="400" y="202" type="line" smooth="yes"/>
      <point x="400" y="68"/>
      <point x="424" y="-14"/>
      <point x="518" y="-14" type="curve" smooth="yes"/>
      <point x="576" y="-14"/>
      <point x="607" y="34"/>
      <point x="607" y="73" type="curve" smooth="yes"/>
      <point x="607" y="93"/>
      <point x="604" y="105"/>
      <point x="598" y="119" type="curve"/>
      <point x="587" y="112"/>
      <point x="573" y="108"/>
      <point x="556" y="108" type="curve" smooth="yes"/>
      <point x="478" y="108"/>
      <point x="453" y="201"/>
      <point x="456" y="397" type="curve"/>
      <point x="400" y="443" type="line"/>
    </contour>
  </outline>
</glyph>
<glyph name="pi.ss04" format="1">
  <advance width="627"/>
  <outline>
    <contour>
      <point x="81" y="384"/>
      <point x="131" y="384"/>
      <point x="201" y="384" type="curve" smooth="yes"/>
      <point x="546" y="385" type="line" smooth="yes"/>
      <point x="591" y="385"/>
      <point x="617" y="418"/>
      <point x="617" y="463" type="curve" smooth="yes"/>
      <point x="617" y="501"/>
      <point x="597" y="528"/>
      <point x="587" y="540" type="curve"/>
      <point x="542" y="523"/>
      <point x="494" y="520"/>
      <point x="322" y="520" type="curve" smooth="yes"/>
      <point x="197" y="520" type="line" smooth="yes"/>
      <point x="52" y="520"/>
      <point x="4" y="359"/>
      <point x="41" y="329" type="curve"/>
    </contour>
    <contour>
      <point x="94" y="5"/>
      <point x="133" y="-14"/>
      <point x="164" y="-14" type="curve" smooth="yes"/>
      <point x="197" y="-14"/>
      <point x="225" y="5"/>
      <point x="229" y="55" type="curve" smooth="yes"/>
      <point x="254" y="389" type="line"/>
      <point x="211" y="407" type="line"/>
      <point x="183" y="228"/>
      <point x="133" y="112"/>
      <point x="75" y="30" type="curve"/>
    </contour>
    <contour>
      <point x="400" y="190" type="line" smooth="yes"/>
      <point x="405" y="42"/>
      <point x="427" y="-14"/>
      <point x="497" y="-14" type="curve" smooth="yes"/>
      <point x="544" y="-14"/>
      <point x="578" y="17"/>
      <point x="578" y="66" type="curve" smooth="yes"/>
      <point x="578" y="85"/>
      <point x="574" y="104"/>
      <point x="566" y="118" type="curve"/>
      <point x="556" y="112"/>
      <point x="524" y="108"/>
      <point x="504" y="108" type="curve" smooth="yes"/>
      <point x="441" y="108"/>
      <point x="455" y="137"/>
      <point x="455" y="200" type="curve" smooth="yes"/>
      <point x="456" y="469" type="line"/>
      <point x="375" y="502" type="line"/>
      <point x="392" y="462"/>
      <point x="393" y="415"/>
      <point x="395" y="352" type="curve" smooth="yes"/>
    </contour>
  </outline>
</glyph>
<glyph name="rho.ss04" format="1">
  <advance width="508"/>
  <outline>
    <contour>
      <point x="450" y="400"/>
      <point x="408" y="535"/>
      <point x="276" y="535" type="curve" smooth="yes"/>
      <point x="153" y="535"/>
      <point x="73" y="408"/>
      <point x="75" y="236" type="curve" smooth="yes"/>
      <point x="79" y="-130" type="line" smooth="yes"/>
      <point x="80" y="-197"/>
      <point x="109" y="-224"/>
      <point x="156" y="-224" type="curve" smooth="yes"/>
      <point x="206" y="-224"/>
      <point x="232" y="-202"/>
      <point x="249" y="-178" type="curve"/>
      <point x="227" y="-162"/>
      <point x="209" y="-132"/>
      <point x="190" y="-70" type="curve" smooth="yes"/>
      <point x="169" y="-4"/>
      <point x="147" y="80"/>
      <point x="136" y="165" type="curve"/>
      <point x="101" y="165" type="line"/>
      <point x="136" y="39"/>
      <point x="223" y="-18"/>
      <point x="295" y="-18" type="curve" smooth="yes"/>
      <point x="384" y="-18"/>
      <point x="459" y="108"/>
      <point x="453" y="290" type="curve" smooth="yes"/>
    </contour>
    <contour>
      <point x="175" y="126"/>
      <point x="121" y="162"/>
      <point x="121" y="231" type="curve" smooth="yes"/>
      <point x="121" y="305"/>
      <point x="182" y="390"/>
      <point x="295" y="390" type="curve" smooth="yes"/>
      <point x="347" y="390"/>
      <point x="407" y="365"/>
      <point x="407" y="287" type="curve" smooth="yes"/>
      <point x="407" y="211"/>
      <point x="359" y="126"/>
      <point x="239" y="126" type="curve" smooth="yes"/>
    </contour>
  </outline>
</glyph>
<glyph name="tonos.case" format="1">
  <advance width="215"/>
  <outline>
    <component base="tonos"/>
    <contour>
      <point x="193" y="700" type="move" name="_topleft"/>
    </contour>
  </outline>
</glyph>
